# xmcd
#
# Track frame offsets: 
#        150
#        12173
#        25471
#        36356
#        48478
#        62218
#        75893
#        89503
#        102478
#        115738
#        129563
#        144181
#        158705
#        172661
#        187420
#        202531
#        213753
#        227613
#        242028
#        254571
#        267893
#        281956
#        296158
#        309498
#        322720
#
# Disc length: 4472 seconds
#
# Revision: 1
# Processed by: cddbd v1.5.2PL0 Copyright (c) Steve Scherf et al.
# Submitted via: ExactAudioCopy v0.95b4
#
DISCID=5c117619
DTITLE=Maxine Sullivan - Say It With A Kiss
DYEAR=1997
DGENRE=Vocal Jazz
TTITLE0=Stop! You're Breaking My Heart
TTITLE1=Loch Lomond
TTITLE2=Im Coming Virginia
TTITLE3=Annie Laurie
TTITLE4=Blue Skies
TTITLE5=Easy To Love
TTITLE6=The Folks Who Love On The Hill
TTITLE7=Nice Work If You Can Get It
TTITLE8=It's Wonderful
TTITLE9=Moments Like This
TTITLE10=Please Be Kind
TTITLE11=It Was A Lover And His Lass
TTITLE12=Dark Eyes
TTITLE13=Spring Is Here
TTITLE14=Night And Day
TTITLE15=Kinda Lonesome
TTITLE16=Say It With A Kiss
TTITLE17=If I Had A Ribbon Now
TTITLE18=Molly Malone
TTITLE19=The Heart You Stole From Me
TTITLE20=Every Time We Say Goodbye
TTITLE21=This Heart Of Mine
TTITLE22=Mad About The Boy
TTITLE23=I Must Have That Man
TTITLE24=I Can't Get Started
EXTD=YEAR: 1997
EXTT0=
EXTT1=
EXTT2=
EXTT3=
EXTT4=
EXTT5=
EXTT6=
EXTT7=
EXTT8=
EXTT9=
EXTT10=
EXTT11=
EXTT12=
EXTT13=
EXTT14=
EXTT15=
EXTT16=
EXTT17=
EXTT18=
EXTT19=
EXTT20=
EXTT21=
EXTT22=
EXTT23=
EXTT24=
PLAYORDER=
